if (_typeface_js && _typeface_js.loadFace) _typeface_js.loadFace({"glyphs":{"0":{"ha":772,"x_min":0,"x_max":0,"o":""},"1":{"ha":772,"x_min":0,"x_max":0,"o":""},"2":{"ha":772,"x_min":0,"x_max":0,"o":""},"3":{"ha":772,"x_min":0,"x_max":0,"o":""},"4":{"ha":772,"x_min":0,"x_max":0,"o":""},"5":{"ha":772,"x_min":0,"x_max":0,"o":""},"6":{"ha":772,"x_min":0,"x_max":0,"o":""},"7":{"ha":772,"x_min":0,"x_max":0,"o":""},"8":{"ha":772,"x_min":0,"x_max":0,"o":""},"9":{"ha":772,"x_min":0,"x_max":0,"o":""}," ":{"ha":386,"x_min":0,"x_max":0,"o":""},"!":{"ha":386,"x_min":0,"x_max":0,"o":""},"\"":{"ha":493,"x_min":0,"x_max":0,"o":""},"#":{"ha":772,"x_min":0,"x_max":0,"o":""},"$":{"ha":772,"x_min":0,"x_max":0,"o":""},"%":{"ha":1235,"x_min":0,"x_max":0,"o":""},"&":{"ha":926,"x_min":0,"x_max":0,"o":""},"'":{"ha":265,"x_min":0,"x_max":0,"o":""},"(":{"ha":463,"x_min":0,"x_max":0,"o":""},")":{"ha":463,"x_min":0,"x_max":0,"o":""},"*":{"ha":541,"x_min":0,"x_max":0,"o":""},"+":{"ha":811,"x_min":0,"x_max":0,"o":""},",":{"ha":386,"x_min":0,"x_max":0,"o":""},"-":{"ha":463,"x_min":0,"x_max":0,"o":""},".":{"ha":386,"x_min":0,"x_max":0,"o":""},"/":{"ha":386,"x_min":0,"x_max":0,"o":""},":":{"ha":386,"x_min":0,"x_max":0,"o":""},";":{"ha":386,"x_min":0,"x_max":0,"o":""},"<":{"ha":811,"x_min":0,"x_max":0,"o":""},"=":{"ha":811,"x_min":0,"x_max":0,"o":""},">":{"ha":811,"x_min":0,"x_max":0,"o":""},"?":{"ha":772,"x_min":0,"x_max":0,"o":""},"@":{"ha":1410,"x_min":0,"x_max":0,"o":""},"A":{"ha":578,"x_min":34,"x_max":544,"o":"m 471 930 l 495 930 q 544 882 544 921 l 544 49 q 495 0 534 0 l 484 0 q 433 79 433 0 l 433 396 q 245 301 334 380 q 142 38 142 195 q 94 0 123 0 l 83 0 q 34 49 34 10 l 34 92 q 208 751 34 464 q 471 930 339 930 m 180 391 q 403 502 300 490 l 433 507 l 433 808 l 430 808 q 248 597 333 770 q 180 391 180 425 z "},"B":{"ha":578,"x_min":34,"x_max":544,"o":"m 83 933 l 107 933 q 313 825 205 933 q 517 369 445 694 q 544 95 544 220 l 544 49 q 492 3 544 14 l 416 0 l 83 0 q 34 49 34 9 l 34 884 q 83 933 43 933 m 145 811 l 145 510 l 148 510 q 340 439 232 504 l 397 396 q 313 635 370 515 q 145 811 229 783 m 145 399 l 145 109 l 273 111 l 430 111 q 351 285 418 199 q 159 396 253 382 l 145 399 z "},"C":{"ha":578,"x_min":34,"x_max":544,"o":"m 471 933 l 495 933 q 544 884 544 924 l 544 873 q 476 822 544 828 q 245 597 361 822 q 145 111 145 344 l 194 111 l 503 109 q 544 60 544 91 l 544 49 q 495 0 534 0 l 161 0 q 53 16 53 0 q 34 49 34 33 l 34 95 q 208 754 34 468 q 471 933 339 933 z "},"D":{"ha":578,"x_min":34,"x_max":544,"o":"m 83 933 l 107 933 q 313 825 205 933 q 517 369 445 694 q 544 95 544 220 l 544 49 q 492 3 544 14 l 416 0 l 83 0 q 34 49 34 9 l 34 884 q 83 933 43 933 m 145 811 l 145 109 l 273 111 l 433 111 l 433 114 q 311 640 433 376 q 145 811 227 783 z "},"E":{"ha":578,"x_min":34,"x_max":544,"o":"m 471 933 l 495 933 q 544 884 544 924 l 544 873 q 449 819 544 819 q 289 675 359 787 q 194 448 229 576 l 180 396 q 492 515 322 515 q 544 469 544 500 l 544 450 q 481 404 544 409 q 202 252 321 404 q 148 111 157 180 l 194 111 l 503 109 q 544 60 544 91 l 544 49 q 495 0 534 0 l 161 0 q 53 16 53 0 q 34 49 34 33 l 34 95 q 208 754 34 468 q 471 933 339 933 z "},"F":{"ha":578,"x_min":34,"x_max":544,"o":"m 471 930 l 495 930 q 544 882 544 921 l 544 871 q 449 817 544 817 q 286 670 361 787 q 183 407 221 555 l 180 391 q 473 510 319 510 l 495 510 q 544 461 544 500 l 544 450 q 438 396 544 396 q 270 323 376 396 q 142 38 142 212 q 94 0 123 0 l 83 0 q 34 49 34 10 l 34 92 q 208 751 34 464 q 471 930 339 930 z "},"G":{"ha":578,"x_min":34,"x_max":544,"o":"m 471 933 l 495 933 q 544 884 544 924 l 544 873 q 476 822 544 828 q 245 597 361 822 q 145 111 145 344 l 305 111 l 433 109 l 433 445 q 487 524 433 524 l 492 524 q 544 477 544 513 l 544 49 q 495 0 534 0 l 161 0 q 53 16 53 0 q 34 49 34 33 l 34 95 q 208 754 34 468 q 471 933 339 933 z "},"H":{"ha":578,"x_min":34,"x_max":544,"o":"m 83 930 l 94 930 q 145 863 141 930 l 145 355 q 397 502 233 460 l 433 507 l 433 860 q 481 930 437 930 l 495 930 q 544 882 544 921 l 544 49 q 495 0 534 0 l 484 0 q 433 79 433 0 l 433 396 q 245 301 334 380 q 142 38 142 195 q 94 0 123 0 l 83 0 q 34 49 34 10 l 34 882 q 83 930 44 930 z "},"I":{"ha":176,"x_min":34,"x_max":142,"o":"m 83 930 l 94 930 q 142 882 142 921 l 142 49 q 94 0 132 0 l 83 0 q 34 49 34 10 l 34 882 q 83 930 44 930 z "},"J":{"ha":578,"x_min":34,"x_max":544,"o":"m 83 933 l 107 933 q 313 825 205 933 q 517 369 445 694 q 544 95 544 220 l 544 49 q 492 3 544 14 l 416 0 l 83 0 q 34 49 34 9 l 34 60 q 77 109 47 109 l 384 111 l 433 111 l 433 114 q 308 646 433 381 q 140 814 224 787 q 64 827 123 821 q 34 873 34 850 l 34 884 q 83 933 43 933 z "},"K":{"ha":605,"x_min":34,"x_max":571,"o":"m 83 958 l 94 958 q 205 852 127 958 q 300 713 270 770 l 305 713 q 492 955 367 829 l 511 958 l 522 958 q 571 909 571 948 l 571 898 q 511 817 571 874 q 365 602 418 697 q 557 122 456 439 l 571 62 l 571 49 q 519 0 571 9 l 514 0 q 446 106 463 0 q 297 494 384 307 q 145 751 234 619 l 142 751 l 142 46 q 94 0 142 12 l 83 0 q 34 49 34 9 l 34 909 q 83 958 43 958 z "},"L":{"ha":578,"x_min":34,"x_max":544,"o":"m 83 930 l 94 930 q 145 841 145 930 q 321 209 145 472 q 506 109 404 109 q 544 60 544 90 l 544 49 q 495 0 534 0 l 471 0 q 267 106 374 0 q 64 556 135 233 q 34 838 34 700 l 34 882 q 83 930 44 930 z "},"M":{"ha":979,"x_min":34,"x_max":945,"o":"m 471 930 l 509 930 q 715 822 606 930 q 916 385 848 681 q 945 92 945 217 l 945 49 q 897 0 935 0 l 886 0 q 834 90 834 0 q 677 694 834 433 q 547 808 609 788 l 547 79 q 495 0 547 0 l 484 0 q 433 79 433 0 l 433 808 l 430 808 q 292 675 351 774 q 199 469 248 612 q 142 38 142 259 q 94 0 123 0 l 83 0 q 34 49 34 10 l 34 92 q 208 751 34 464 q 471 930 339 930 z "},"N":{"ha":578,"x_min":34,"x_max":544,"o":"m 83 930 l 94 930 q 145 863 141 930 l 145 844 q 302 236 145 496 q 433 122 370 142 l 433 860 q 481 930 437 930 l 495 930 q 544 882 544 921 l 544 49 q 495 0 534 0 l 471 0 q 194 198 332 0 l 148 290 l 145 290 l 145 79 q 94 0 145 0 l 83 0 q 34 49 34 10 l 34 882 q 83 930 44 930 z "},"O":{"ha":578,"x_min":34,"x_max":544,"o":"m 278 960 l 292 960 q 411 795 341 960 q 544 106 544 481 l 544 49 q 495 0 534 0 l 83 0 q 34 49 34 9 l 34 106 q 191 852 34 514 q 251 947 245 945 q 278 960 251 954 m 286 795 q 145 111 145 477 l 433 111 l 433 114 q 292 795 433 476 l 286 795 z "},"P":{"ha":578,"x_min":34,"x_max":544,"o":"m 471 930 l 495 930 q 544 882 544 921 l 544 450 q 438 396 544 396 q 270 323 376 396 q 142 38 142 212 q 94 0 123 0 l 83 0 q 34 49 34 10 l 34 92 q 208 751 34 464 q 471 930 339 930 m 180 391 q 403 502 300 490 l 433 507 l 433 808 l 430 808 q 248 597 333 770 q 180 391 180 425 z "},"Q":{"ha":578,"x_min":34,"x_max":544,"o":"m 278 960 l 292 960 q 411 795 341 960 q 544 106 544 481 l 544 49 q 495 0 534 0 l 83 0 q 34 49 34 9 l 34 106 q 191 852 34 514 q 251 947 245 945 q 278 960 251 954 m 286 795 q 145 111 145 477 l 319 111 l 319 114 q 229 480 229 262 q 281 532 239 532 l 289 532 q 340 475 334 532 q 419 163 340 286 l 433 149 q 346 665 433 361 l 292 795 l 286 795 z "},"R":{"ha":578,"x_min":34,"x_max":544,"o":"m 83 930 l 110 930 q 435 765 286 930 q 544 475 544 625 l 544 437 q 500 252 544 347 q 544 71 544 158 l 544 49 q 495 0 534 0 l 484 0 q 430 106 430 0 q 392 209 409 209 q 338 296 377 253 q 145 396 233 387 l 145 79 q 94 0 145 0 l 83 0 q 34 49 34 10 l 34 882 q 83 930 44 930 m 145 817 l 145 507 q 368 418 252 497 q 419 366 419 372 l 425 366 l 433 437 l 433 475 q 346 700 433 589 q 156 814 256 797 l 145 817 z "},"S":{"ha":578,"x_min":34,"x_max":544,"o":"m 473 930 l 495 930 q 544 882 544 921 l 544 871 q 438 817 544 817 q 259 732 370 817 q 153 551 177 652 l 148 521 l 492 521 q 544 475 544 509 l 544 445 q 357 87 544 242 q 104 0 231 0 l 83 0 q 34 49 34 10 l 34 60 q 140 114 34 114 q 319 198 208 114 q 425 380 401 279 l 430 410 l 85 410 q 34 456 34 421 l 34 486 q 221 844 34 688 q 473 930 347 930 z "},"T":{"ha":581,"x_min":34,"x_max":547,"o":"m 83 958 l 384 958 l 492 955 l 544 898 q 498 844 544 857 l 362 846 l 343 846 q 416 258 343 556 q 511 106 465 106 q 547 60 547 91 l 547 49 q 498 0 537 0 l 479 0 q 327 179 395 0 q 235 833 235 466 l 235 841 l 229 846 l 104 846 q 34 895 34 850 l 34 909 q 83 958 43 958 z "},"U":{"ha":979,"x_min":34,"x_max":945,"o":"m 83 930 l 94 930 q 145 841 145 930 q 311 225 145 485 q 481 111 397 111 l 498 111 q 758 399 640 111 q 837 892 837 624 q 886 930 856 930 l 897 930 q 945 882 945 921 l 945 838 q 772 179 945 467 q 509 0 640 0 l 471 0 q 267 106 374 0 q 64 556 135 233 q 34 838 34 700 l 34 882 q 83 930 44 930 z "},"V":{"ha":578,"x_min":34,"x_max":544,"o":"m 83 958 l 94 958 q 145 879 145 958 l 145 860 q 286 168 145 479 l 292 168 q 433 860 433 479 l 433 879 q 484 958 433 958 l 495 958 q 544 909 544 947 l 544 863 q 370 79 544 418 q 292 0 326 0 l 278 0 q 210 79 247 0 q 115 298 168 141 q 34 863 34 582 l 34 909 q 83 958 44 958 z "},"W":{"ha":979,"x_min":34,"x_max":945,"o":"m 83 958 l 94 958 q 145 879 145 958 l 145 860 q 286 168 145 479 l 292 168 q 433 860 433 479 l 433 879 q 484 958 433 958 l 495 958 q 547 879 547 958 l 547 860 q 688 168 547 479 l 693 168 q 834 860 834 479 l 834 879 q 886 958 834 958 l 897 958 q 945 909 945 947 l 945 863 q 772 79 945 418 q 693 0 727 0 l 680 0 q 604 95 646 0 q 519 290 571 140 l 492 396 l 487 396 q 392 119 487 342 q 297 0 330 0 l 278 0 q 210 79 247 0 q 115 298 168 141 q 34 863 34 582 l 34 909 q 83 958 44 958 z "},"X":{"ha":605,"x_min":34,"x_max":571,"o":"m 83 958 l 94 958 q 194 865 125 958 q 300 713 254 795 l 305 713 q 446 909 345 788 q 511 958 486 958 l 522 958 q 571 909 571 948 l 571 898 q 506 811 571 873 q 365 602 445 733 q 555 127 457 437 q 571 54 571 70 l 571 49 q 522 0 562 0 l 511 0 q 444 114 463 0 q 300 477 374 338 q 134 22 210 283 q 94 0 113 0 l 83 0 q 34 49 34 10 l 34 54 q 178 477 34 119 l 240 600 q 42 873 180 718 q 34 898 36 873 l 34 909 q 83 958 43 958 z "},"Y":{"ha":578,"x_min":34,"x_max":544,"o":"m 83 958 l 94 958 q 145 868 145 958 q 232 600 145 743 q 289 534 265 554 q 406 719 373 619 q 435 920 435 822 q 484 958 454 958 l 495 958 q 544 909 544 947 l 544 863 q 370 79 544 418 q 292 0 326 0 l 278 0 q 232 46 232 14 l 232 57 q 278 144 232 74 q 392 480 378 352 q 286 404 320 404 q 145 532 245 404 q 34 876 34 701 l 34 909 q 83 958 44 958 z "},"Z":{"ha":578,"x_min":34,"x_max":544,"o":"m 83 930 l 104 930 q 476 716 321 930 q 544 486 544 593 l 544 456 q 492 410 544 421 l 148 410 q 232 225 148 340 q 506 109 341 109 q 544 60 544 90 l 544 49 q 495 0 534 0 l 473 0 q 102 214 257 0 q 34 445 34 337 l 34 475 q 85 521 34 509 l 430 521 q 346 705 430 590 q 72 822 237 822 q 34 871 34 842 l 34 882 q 83 930 44 930 z "},"[":{"ha":386,"x_min":0,"x_max":0,"o":""},"\\":{"ha":386,"x_min":0,"x_max":0,"o":""},"]":{"ha":386,"x_min":0,"x_max":0,"o":""},"^":{"ha":652,"x_min":0,"x_max":0,"o":""},"_":{"ha":772,"x_min":0,"x_max":0,"o":""},"`":{"ha":463,"x_min":0,"x_max":0,"o":""},"a":{"ha":578,"x_min":34,"x_max":544,"o":"m 471 930 l 495 930 q 544 882 544 921 l 544 49 q 495 0 534 0 l 484 0 q 433 79 433 0 l 433 396 q 245 301 334 380 q 142 38 142 195 q 94 0 123 0 l 83 0 q 34 49 34 10 l 34 92 q 208 751 34 464 q 471 930 339 930 m 180 391 q 403 502 300 490 l 433 507 l 433 808 l 430 808 q 248 597 333 770 q 180 391 180 425 z "},"b":{"ha":578,"x_min":34,"x_max":544,"o":"m 83 933 l 107 933 q 313 825 205 933 q 517 369 445 694 q 544 95 544 220 l 544 49 q 492 3 544 14 l 416 0 l 83 0 q 34 49 34 9 l 34 884 q 83 933 43 933 m 145 811 l 145 510 l 148 510 q 340 439 232 504 l 397 396 q 313 635 370 515 q 145 811 229 783 m 145 399 l 145 109 l 273 111 l 430 111 q 351 285 418 199 q 159 396 253 382 l 145 399 z "},"c":{"ha":578,"x_min":34,"x_max":544,"o":"m 471 933 l 495 933 q 544 884 544 924 l 544 873 q 476 822 544 828 q 245 597 361 822 q 145 111 145 344 l 194 111 l 503 109 q 544 60 544 91 l 544 49 q 495 0 534 0 l 161 0 q 53 16 53 0 q 34 49 34 33 l 34 95 q 208 754 34 468 q 471 933 339 933 z "},"d":{"ha":578,"x_min":34,"x_max":544,"o":"m 83 933 l 107 933 q 313 825 205 933 q 517 369 445 694 q 544 95 544 220 l 544 49 q 492 3 544 14 l 416 0 l 83 0 q 34 49 34 9 l 34 884 q 83 933 43 933 m 145 811 l 145 109 l 273 111 l 433 111 l 433 114 q 311 640 433 376 q 145 811 227 783 z "},"e":{"ha":578,"x_min":34,"x_max":544,"o":"m 471 933 l 495 933 q 544 884 544 924 l 544 873 q 449 819 544 819 q 289 675 359 787 q 194 448 229 576 l 180 396 q 492 515 322 515 q 544 469 544 500 l 544 450 q 481 404 544 409 q 202 252 321 404 q 148 111 157 180 l 194 111 l 503 109 q 544 60 544 91 l 544 49 q 495 0 534 0 l 161 0 q 53 16 53 0 q 34 49 34 33 l 34 95 q 208 754 34 468 q 471 933 339 933 z "},"f":{"ha":578,"x_min":34,"x_max":544,"o":"m 471 930 l 495 930 q 544 882 544 921 l 544 871 q 449 817 544 817 q 286 670 361 787 q 183 407 221 555 l 180 391 q 473 510 319 510 l 495 510 q 544 461 544 500 l 544 450 q 438 396 544 396 q 270 323 376 396 q 142 38 142 212 q 94 0 123 0 l 83 0 q 34 49 34 10 l 34 92 q 208 751 34 464 q 471 930 339 930 z "},"g":{"ha":578,"x_min":34,"x_max":544,"o":"m 471 933 l 495 933 q 544 884 544 924 l 544 873 q 476 822 544 828 q 245 597 361 822 q 145 111 145 344 l 305 111 l 433 109 l 433 445 q 487 524 433 524 l 492 524 q 544 477 544 513 l 544 49 q 495 0 534 0 l 161 0 q 53 16 53 0 q 34 49 34 33 l 34 95 q 208 754 34 468 q 471 933 339 933 z "},"h":{"ha":578,"x_min":34,"x_max":544,"o":"m 83 930 l 94 930 q 145 863 141 930 l 145 355 q 397 502 233 460 l 433 507 l 433 860 q 481 930 437 930 l 495 930 q 544 882 544 921 l 544 49 q 495 0 534 0 l 484 0 q 433 79 433 0 l 433 396 q 245 301 334 380 q 142 38 142 195 q 94 0 123 0 l 83 0 q 34 49 34 10 l 34 882 q 83 930 44 930 z "},"i":{"ha":176,"x_min":34,"x_max":142,"o":"m 83 930 l 94 930 q 142 882 142 921 l 142 49 q 94 0 132 0 l 83 0 q 34 49 34 10 l 34 882 q 83 930 44 930 z "},"j":{"ha":578,"x_min":34,"x_max":544,"o":"m 83 933 l 107 933 q 313 825 205 933 q 517 369 445 694 q 544 95 544 220 l 544 49 q 492 3 544 14 l 416 0 l 83 0 q 34 49 34 9 l 34 60 q 77 109 47 109 l 384 111 l 433 111 l 433 114 q 308 646 433 381 q 140 814 224 787 q 64 827 123 821 q 34 873 34 850 l 34 884 q 83 933 43 933 z "},"k":{"ha":605,"x_min":34,"x_max":571,"o":"m 83 958 l 94 958 q 205 852 127 958 q 300 713 270 770 l 305 713 q 492 955 367 829 l 511 958 l 522 958 q 571 909 571 948 l 571 898 q 511 817 571 874 q 365 602 418 697 q 557 122 456 439 l 571 62 l 571 49 q 519 0 571 9 l 514 0 q 446 106 463 0 q 297 494 384 307 q 145 751 234 619 l 142 751 l 142 46 q 94 0 142 12 l 83 0 q 34 49 34 9 l 34 909 q 83 958 43 958 z "},"l":{"ha":578,"x_min":34,"x_max":544,"o":"m 83 930 l 94 930 q 145 841 145 930 q 321 209 145 472 q 506 109 404 109 q 544 60 544 90 l 544 49 q 495 0 534 0 l 471 0 q 267 106 374 0 q 64 556 135 233 q 34 838 34 700 l 34 882 q 83 930 44 930 z "},"m":{"ha":979,"x_min":34,"x_max":945,"o":"m 471 930 l 509 930 q 715 822 606 930 q 916 385 848 681 q 945 92 945 217 l 945 49 q 897 0 935 0 l 886 0 q 834 90 834 0 q 677 694 834 433 q 547 808 609 788 l 547 79 q 495 0 547 0 l 484 0 q 433 79 433 0 l 433 808 l 430 808 q 292 675 351 774 q 199 469 248 612 q 142 38 142 259 q 94 0 123 0 l 83 0 q 34 49 34 10 l 34 92 q 208 751 34 464 q 471 930 339 930 z "},"n":{"ha":578,"x_min":34,"x_max":544,"o":"m 83 930 l 94 930 q 145 863 141 930 l 145 844 q 302 236 145 496 q 433 122 370 142 l 433 860 q 481 930 437 930 l 495 930 q 544 882 544 921 l 544 49 q 495 0 534 0 l 471 0 q 194 198 332 0 l 148 290 l 145 290 l 145 79 q 94 0 145 0 l 83 0 q 34 49 34 10 l 34 882 q 83 930 44 930 z "},"o":{"ha":578,"x_min":34,"x_max":544,"o":"m 278 960 l 292 960 q 411 795 341 960 q 544 106 544 481 l 544 49 q 495 0 534 0 l 83 0 q 34 49 34 9 l 34 106 q 191 852 34 514 q 251 947 245 945 q 278 960 251 954 m 286 795 q 145 111 145 477 l 433 111 l 433 114 q 292 795 433 476 l 286 795 z "},"p":{"ha":578,"x_min":34,"x_max":544,"o":"m 471 930 l 495 930 q 544 882 544 921 l 544 450 q 438 396 544 396 q 270 323 376 396 q 142 38 142 212 q 94 0 123 0 l 83 0 q 34 49 34 10 l 34 92 q 208 751 34 464 q 471 930 339 930 m 180 391 q 403 502 300 490 l 433 507 l 433 808 l 430 808 q 248 597 333 770 q 180 391 180 425 z "},"q":{"ha":578,"x_min":34,"x_max":544,"o":"m 278 960 l 292 960 q 411 795 341 960 q 544 106 544 481 l 544 49 q 495 0 534 0 l 83 0 q 34 49 34 9 l 34 106 q 191 852 34 514 q 251 947 245 945 q 278 960 251 954 m 286 795 q 145 111 145 477 l 319 111 l 319 114 q 229 480 229 262 q 281 532 239 532 l 289 532 q 340 475 334 532 q 419 163 340 286 l 433 149 q 346 665 433 361 l 292 795 l 286 795 z "},"r":{"ha":578,"x_min":34,"x_max":544,"o":"m 83 930 l 110 930 q 435 765 286 930 q 544 475 544 625 l 544 437 q 500 252 544 347 q 544 71 544 158 l 544 49 q 495 0 534 0 l 484 0 q 430 106 430 0 q 392 209 409 209 q 338 296 377 253 q 145 396 233 387 l 145 79 q 94 0 145 0 l 83 0 q 34 49 34 10 l 34 882 q 83 930 44 930 m 145 817 l 145 507 q 368 418 252 497 q 419 366 419 372 l 425 366 l 433 437 l 433 475 q 346 700 433 589 q 156 814 256 797 l 145 817 z "},"s":{"ha":578,"x_min":34,"x_max":544,"o":"m 473 930 l 495 930 q 544 882 544 921 l 544 871 q 438 817 544 817 q 259 732 370 817 q 153 551 177 652 l 148 521 l 492 521 q 544 475 544 509 l 544 445 q 357 87 544 242 q 104 0 231 0 l 83 0 q 34 49 34 10 l 34 60 q 140 114 34 114 q 319 198 208 114 q 425 380 401 279 l 430 410 l 85 410 q 34 456 34 421 l 34 486 q 221 844 34 688 q 473 930 347 930 z "},"t":{"ha":581,"x_min":34,"x_max":547,"o":"m 83 958 l 384 958 l 492 955 l 544 898 q 498 844 544 857 l 362 846 l 343 846 q 416 258 343 556 q 511 106 465 106 q 547 60 547 91 l 547 49 q 498 0 537 0 l 479 0 q 327 179 395 0 q 235 833 235 466 l 235 841 l 229 846 l 104 846 q 34 895 34 850 l 34 909 q 83 958 43 958 z "},"u":{"ha":979,"x_min":34,"x_max":945,"o":"m 83 930 l 94 930 q 145 841 145 930 q 311 225 145 485 q 481 111 397 111 l 498 111 q 758 399 640 111 q 837 892 837 624 q 886 930 856 930 l 897 930 q 945 882 945 921 l 945 838 q 772 179 945 467 q 509 0 640 0 l 471 0 q 267 106 374 0 q 64 556 135 233 q 34 838 34 700 l 34 882 q 83 930 44 930 z "},"v":{"ha":578,"x_min":34,"x_max":544,"o":"m 83 958 l 94 958 q 145 879 145 958 l 145 860 q 286 168 145 479 l 292 168 q 433 860 433 479 l 433 879 q 484 958 433 958 l 495 958 q 544 909 544 947 l 544 863 q 370 79 544 418 q 292 0 326 0 l 278 0 q 210 79 247 0 q 115 298 168 141 q 34 863 34 582 l 34 909 q 83 958 44 958 z "},"w":{"ha":979,"x_min":34,"x_max":945,"o":"m 83 958 l 94 958 q 145 879 145 958 l 145 860 q 286 168 145 479 l 292 168 q 433 860 433 479 l 433 879 q 484 958 433 958 l 495 958 q 547 879 547 958 l 547 860 q 688 168 547 479 l 693 168 q 834 860 834 479 l 834 879 q 886 958 834 958 l 897 958 q 945 909 945 947 l 945 863 q 772 79 945 418 q 693 0 727 0 l 680 0 q 604 95 646 0 q 519 290 571 140 l 492 396 l 487 396 q 392 119 487 342 q 297 0 330 0 l 278 0 q 210 79 247 0 q 115 298 168 141 q 34 863 34 582 l 34 909 q 83 958 44 958 z "},"x":{"ha":605,"x_min":34,"x_max":571,"o":"m 83 958 l 94 958 q 194 865 125 958 q 300 713 254 795 l 305 713 q 446 909 345 788 q 511 958 486 958 l 522 958 q 571 909 571 948 l 571 898 q 506 811 571 873 q 365 602 445 733 q 555 127 457 437 q 571 54 571 70 l 571 49 q 522 0 562 0 l 511 0 q 444 114 463 0 q 300 477 374 338 q 134 22 210 283 q 94 0 113 0 l 83 0 q 34 49 34 10 l 34 54 q 178 477 34 119 l 240 600 q 42 873 180 718 q 34 898 36 873 l 34 909 q 83 958 43 958 z "},"y":{"ha":578,"x_min":34,"x_max":544,"o":"m 83 958 l 94 958 q 145 868 145 958 q 232 600 145 743 q 289 534 265 554 q 406 719 373 619 q 435 920 435 822 q 484 958 454 958 l 495 958 q 544 909 544 947 l 544 863 q 370 79 544 418 q 292 0 326 0 l 278 0 q 232 46 232 14 l 232 57 q 278 144 232 74 q 392 480 378 352 q 286 404 320 404 q 145 532 245 404 q 34 876 34 701 l 34 909 q 83 958 44 958 z "},"z":{"ha":578,"x_min":34,"x_max":544,"o":"m 83 930 l 104 930 q 476 716 321 930 q 544 486 544 593 l 544 456 q 492 410 544 421 l 148 410 q 232 225 148 340 q 506 109 341 109 q 544 60 544 90 l 544 49 q 495 0 534 0 l 473 0 q 102 214 257 0 q 34 445 34 337 l 34 475 q 85 521 34 509 l 430 521 q 346 705 430 590 q 72 822 237 822 q 34 871 34 842 l 34 882 q 83 930 44 930 z "},"{":{"ha":464,"x_min":0,"x_max":0,"o":""},"|":{"ha":361,"x_min":0,"x_max":0,"o":""},"}":{"ha":464,"x_min":0,"x_max":0,"o":""},"~":{"ha":811,"x_min":0,"x_max":0,"o":""},"Ä":{"ha":926,"x_min":0,"x_max":0,"o":""},"Å":{"ha":926,"x_min":0,"x_max":0,"o":""},"Ç":{"ha":1003,"x_min":0,"x_max":0,"o":""},"É":{"ha":926,"x_min":0,"x_max":0,"o":""},"Ñ":{"ha":1003,"x_min":0,"x_max":0,"o":""},"Ö":{"ha":1080,"x_min":0,"x_max":0,"o":""},"Ü":{"ha":1003,"x_min":0,"x_max":0,"o":""},"á":{"ha":772,"x_min":0,"x_max":0,"o":""},"à":{"ha":772,"x_min":0,"x_max":0,"o":""},"â":{"ha":772,"x_min":0,"x_max":0,"o":""},"ä":{"ha":772,"x_min":0,"x_max":0,"o":""},"ã":{"ha":772,"x_min":0,"x_max":0,"o":""},"å":{"ha":772,"x_min":0,"x_max":0,"o":""},"ç":{"ha":694,"x_min":0,"x_max":0,"o":""},"é":{"ha":772,"x_min":0,"x_max":0,"o":""},"è":{"ha":772,"x_min":0,"x_max":0,"o":""},"ê":{"ha":772,"x_min":0,"x_max":0,"o":""},"ë":{"ha":772,"x_min":0,"x_max":0,"o":""},"í":{"ha":386,"x_min":0,"x_max":0,"o":""},"ì":{"ha":386,"x_min":0,"x_max":0,"o":""},"î":{"ha":386,"x_min":0,"x_max":0,"o":""},"ï":{"ha":386,"x_min":0,"x_max":0,"o":""},"ñ":{"ha":772,"x_min":0,"x_max":0,"o":""},"ó":{"ha":772,"x_min":0,"x_max":0,"o":""},"ò":{"ha":772,"x_min":0,"x_max":0,"o":""},"ô":{"ha":772,"x_min":0,"x_max":0,"o":""},"ö":{"ha":772,"x_min":0,"x_max":0,"o":""},"õ":{"ha":772,"x_min":0,"x_max":0,"o":""},"ú":{"ha":772,"x_min":0,"x_max":0,"o":""},"ù":{"ha":772,"x_min":0,"x_max":0,"o":""},"û":{"ha":772,"x_min":0,"x_max":0,"o":""},"ü":{"ha":772,"x_min":0,"x_max":0,"o":""},"†":{"ha":772,"x_min":0,"x_max":0,"o":""},"°":{"ha":555,"x_min":0,"x_max":0,"o":""},"¢":{"ha":772,"x_min":0,"x_max":0,"o":""},"£":{"ha":772,"x_min":0,"x_max":0,"o":""},"§":{"ha":772,"x_min":0,"x_max":0,"o":""},"•":{"ha":486,"x_min":0,"x_max":0,"o":""},"¶":{"ha":746,"x_min":0,"x_max":0,"o":""},"ß":{"ha":848,"x_min":0,"x_max":0,"o":""},"®":{"ha":1023,"x_min":0,"x_max":0,"o":""},"©":{"ha":1023,"x_min":0,"x_max":0,"o":""},"™":{"ha":1389,"x_min":0,"x_max":0,"o":""},"´":{"ha":463,"x_min":0,"x_max":0,"o":""},"¨":{"ha":463,"x_min":0,"x_max":0,"o":""},"≠":{"ha":762,"x_min":0,"x_max":0,"o":""},"Æ":{"ha":1389,"x_min":0,"x_max":0,"o":""},"Ø":{"ha":1080,"x_min":0,"x_max":0,"o":""},"∞":{"ha":990,"x_min":0,"x_max":0,"o":""},"±":{"ha":762,"x_min":0,"x_max":0,"o":""},"≤":{"ha":762,"x_min":0,"x_max":0,"o":""},"≥":{"ha":762,"x_min":0,"x_max":0,"o":""},"¥":{"ha":772,"x_min":0,"x_max":0,"o":""},"µ":{"ha":800,"x_min":0,"x_max":0,"o":""},"∂":{"ha":686,"x_min":0,"x_max":0,"o":""},"∑":{"ha":990,"x_min":0,"x_max":0,"o":""},"∏":{"ha":1143,"x_min":0,"x_max":0,"o":""},"∫":{"ha":380,"x_min":0,"x_max":0,"o":""},"ª":{"ha":514,"x_min":0,"x_max":0,"o":""},"º":{"ha":507,"x_min":0,"x_max":0,"o":""},"Ω":{"ha":1067,"x_min":0,"x_max":0,"o":""},"æ":{"ha":1235,"x_min":0,"x_max":0,"o":""},"ø":{"ha":848,"x_min":0,"x_max":0,"o":""},"¿":{"ha":848,"x_min":0,"x_max":0,"o":""},"¡":{"ha":463,"x_min":0,"x_max":0,"o":""},"¬":{"ha":811,"x_min":0,"x_max":0,"o":""},"√":{"ha":762,"x_min":0,"x_max":0,"o":""},"ƒ":{"ha":772,"x_min":0,"x_max":0,"o":""},"≈":{"ha":762,"x_min":0,"x_max":0,"o":""},"∆":{"ha":850,"x_min":0,"x_max":0,"o":""},"«":{"ha":772,"x_min":0,"x_max":0,"o":""},"»":{"ha":772,"x_min":0,"x_max":0,"o":""},"…":{"ha":1389,"x_min":0,"x_max":0,"o":""},"À":{"ha":926,"x_min":0,"x_max":0,"o":""},"Ã":{"ha":926,"x_min":0,"x_max":0,"o":""},"Õ":{"ha":1080,"x_min":0,"x_max":0,"o":""},"Œ":{"ha":1389,"x_min":0,"x_max":0,"o":""},"œ":{"ha":1311,"x_min":0,"x_max":0,"o":""},"–":{"ha":772,"x_min":0,"x_max":0,"o":""},"—":{"ha":1389,"x_min":0,"x_max":0,"o":""},"“":{"ha":463,"x_min":0,"x_max":0,"o":""},"”":{"ha":463,"x_min":0,"x_max":0,"o":""},"‘":{"ha":309,"x_min":0,"x_max":0,"o":""},"’":{"ha":309,"x_min":0,"x_max":0,"o":""},"÷":{"ha":762,"x_min":0,"x_max":0,"o":""},"◊":{"ha":686,"x_min":0,"x_max":0,"o":""},"ÿ":{"ha":694,"x_min":0,"x_max":0,"o":""},"Ÿ":{"ha":926,"x_min":0,"x_max":0,"o":""},"⁄":{"ha":232,"x_min":0,"x_max":0,"o":""},"€":{"ha":772,"x_min":0,"x_max":0,"o":""},"‹":{"ha":463,"x_min":0,"x_max":0,"o":""},"›":{"ha":463,"x_min":0,"x_max":0,"o":""},"":{"ha":694,"x_min":0,"x_max":0,"o":""},"":{"ha":694,"x_min":0,"x_max":0,"o":""},"‡":{"ha":772,"x_min":0,"x_max":0,"o":""},"·":{"ha":386,"x_min":0,"x_max":0,"o":""},"‚":{"ha":309,"x_min":0,"x_max":0,"o":""},"„":{"ha":463,"x_min":0,"x_max":0,"o":""},"‰":{"ha":1389,"x_min":0,"x_max":0,"o":""},"Â":{"ha":926,"x_min":0,"x_max":0,"o":""},"Ê":{"ha":926,"x_min":0,"x_max":0,"o":""},"Á":{"ha":926,"x_min":0,"x_max":0,"o":""},"Ë":{"ha":926,"x_min":0,"x_max":0,"o":""},"È":{"ha":926,"x_min":0,"x_max":0,"o":""},"Í":{"ha":386,"x_min":0,"x_max":0,"o":""},"Î":{"ha":386,"x_min":0,"x_max":0,"o":""},"Ï":{"ha":386,"x_min":0,"x_max":0,"o":""},"Ì":{"ha":386,"x_min":0,"x_max":0,"o":""},"Ó":{"ha":1080,"x_min":0,"x_max":0,"o":""},"Ô":{"ha":1080,"x_min":0,"x_max":0,"o":""},"Ò":{"ha":1080,"x_min":0,"x_max":0,"o":""},"Ú":{"ha":1003,"x_min":0,"x_max":0,"o":""},"Û":{"ha":1003,"x_min":0,"x_max":0,"o":""},"Ù":{"ha":1003,"x_min":0,"x_max":0,"o":""},"ı":{"ha":386,"x_min":0,"x_max":0,"o":""},"ˆ":{"ha":463,"x_min":0,"x_max":0,"o":""},"˜":{"ha":463,"x_min":0,"x_max":0,"o":""},"ˉ":{"ha":463,"x_min":0,"x_max":0,"o":""},"˘":{"ha":463,"x_min":0,"x_max":0,"o":""},"˙":{"ha":463,"x_min":0,"x_max":0,"o":""},"˚":{"ha":463,"x_min":0,"x_max":0,"o":""},"¸":{"ha":463,"x_min":0,"x_max":0,"o":""},"˝":{"ha":463,"x_min":0,"x_max":0,"o":""},"˛":{"ha":463,"x_min":0,"x_max":0,"o":""},"ˇ":{"ha":463,"x_min":0,"x_max":0,"o":""},"Ł":{"ha":772,"x_min":0,"x_max":0,"o":""},"ł":{"ha":309,"x_min":0,"x_max":0,"o":""},"Š":{"ha":926,"x_min":0,"x_max":0,"o":""},"š":{"ha":694,"x_min":0,"x_max":0,"o":""},"Ž":{"ha":848,"x_min":0,"x_max":0,"o":""},"ž":{"ha":694,"x_min":0,"x_max":0,"o":""},"¦":{"ha":361,"x_min":0,"x_max":0,"o":""},"Ð":{"ha":1003,"x_min":0,"x_max":0,"o":""},"ð":{"ha":772,"x_min":0,"x_max":0,"o":""},"Ý":{"ha":926,"x_min":0,"x_max":0,"o":""},"ý":{"ha":694,"x_min":0,"x_max":0,"o":""},"Þ":{"ha":926,"x_min":0,"x_max":0,"o":""},"þ":{"ha":772,"x_min":0,"x_max":0,"o":""},"−":{"ha":811,"x_min":0,"x_max":0,"o":""},"×":{"ha":811,"x_min":0,"x_max":0,"o":""},"¹":{"ha":463,"x_min":0,"x_max":0,"o":""},"²":{"ha":463,"x_min":0,"x_max":0,"o":""},"³":{"ha":463,"x_min":0,"x_max":0,"o":""},"½":{"ha":1158,"x_min":0,"x_max":0,"o":""},"¼":{"ha":1158,"x_min":0,"x_max":0,"o":""},"¾":{"ha":1158,"x_min":0,"x_max":0,"o":""},"₣":{"ha":772,"x_min":0,"x_max":0,"o":""},"Ğ":{"ha":1080,"x_min":0,"x_max":0,"o":""},"ğ":{"ha":772,"x_min":0,"x_max":0,"o":""},"İ":{"ha":386,"x_min":0,"x_max":0,"o":""},"Ş":{"ha":926,"x_min":0,"x_max":0,"o":""},"ş":{"ha":694,"x_min":0,"x_max":0,"o":""},"Ć":{"ha":1003,"x_min":0,"x_max":0,"o":""},"ć":{"ha":694,"x_min":0,"x_max":0,"o":""},"Č":{"ha":1003,"x_min":0,"x_max":0,"o":""},"č":{"ha":694,"x_min":0,"x_max":0,"o":""},"đ":{"ha":772,"x_min":0,"x_max":0,"o":""},"¤":{"ha":772,"x_min":0,"x_max":0,"o":""},"¯":{"ha":767,"x_min":0,"x_max":0,"o":""},"Ā":{"ha":926,"x_min":0,"x_max":0,"o":""},"ā":{"ha":772,"x_min":0,"x_max":0,"o":""},"Ă":{"ha":926,"x_min":0,"x_max":0,"o":""},"ă":{"ha":772,"x_min":0,"x_max":0,"o":""},"Ą":{"ha":926,"x_min":0,"x_max":0,"o":""},"ą":{"ha":772,"x_min":0,"x_max":0,"o":""},"Ĉ":{"ha":1003,"x_min":0,"x_max":0,"o":""},"ĉ":{"ha":694,"x_min":0,"x_max":0,"o":""},"Ċ":{"ha":1003,"x_min":0,"x_max":0,"o":""},"ċ":{"ha":694,"x_min":0,"x_max":0,"o":""},"Ď":{"ha":1003,"x_min":0,"x_max":0,"o":""},"ď":{"ha":854,"x_min":0,"x_max":0,"o":""},"Đ":{"ha":1003,"x_min":0,"x_max":0,"o":""},"Ē":{"ha":926,"x_min":0,"x_max":0,"o":""},"ē":{"ha":772,"x_min":0,"x_max":0,"o":""},"Ĕ":{"ha":926,"x_min":0,"x_max":0,"o":""},"ĕ":{"ha":772,"x_min":0,"x_max":0,"o":""},"Ė":{"ha":926,"x_min":0,"x_max":0,"o":""},"ė":{"ha":772,"x_min":0,"x_max":0,"o":""},"Ę":{"ha":926,"x_min":0,"x_max":0,"o":""},"ę":{"ha":772,"x_min":0,"x_max":0,"o":""},"Ě":{"ha":926,"x_min":0,"x_max":0,"o":""},"ě":{"ha":772,"x_min":0,"x_max":0,"o":""},"Ĝ":{"ha":1080,"x_min":0,"x_max":0,"o":""},"ĝ":{"ha":772,"x_min":0,"x_max":0,"o":""},"Ġ":{"ha":1080,"x_min":0,"x_max":0,"o":""},"ġ":{"ha":772,"x_min":0,"x_max":0,"o":""},"Ģ":{"ha":1080,"x_min":0,"x_max":0,"o":""},"ģ":{"ha":772,"x_min":0,"x_max":0,"o":""},"Ĥ":{"ha":1003,"x_min":0,"x_max":0,"o":""},"ĥ":{"ha":772,"x_min":0,"x_max":0,"o":""},"Ħ":{"ha":1003,"x_min":0,"x_max":0,"o":""},"ħ":{"ha":772,"x_min":0,"x_max":0,"o":""},"Ĩ":{"ha":386,"x_min":0,"x_max":0,"o":""},"ĩ":{"ha":386,"x_min":0,"x_max":0,"o":""},"Ī":{"ha":386,"x_min":0,"x_max":0,"o":""},"ī":{"ha":386,"x_min":0,"x_max":0,"o":""},"Ĭ":{"ha":386,"x_min":0,"x_max":0,"o":""},"ĭ":{"ha":386,"x_min":0,"x_max":0,"o":""},"Į":{"ha":386,"x_min":0,"x_max":0,"o":""},"į":{"ha":309,"x_min":0,"x_max":0,"o":""},"Ĳ":{"ha":1021,"x_min":0,"x_max":0,"o":""},"ĳ":{"ha":616,"x_min":0,"x_max":0,"o":""},"Ĵ":{"ha":694,"x_min":0,"x_max":0,"o":""},"ĵ":{"ha":309,"x_min":0,"x_max":0,"o":""},"Ķ":{"ha":926,"x_min":0,"x_max":0,"o":""},"ķ":{"ha":694,"x_min":0,"x_max":0,"o":""},"ĸ":{"ha":694,"x_min":0,"x_max":0,"o":""},"Ĺ":{"ha":772,"x_min":0,"x_max":0,"o":""},"ĺ":{"ha":309,"x_min":0,"x_max":0,"o":""},"Ļ":{"ha":772,"x_min":0,"x_max":0,"o":""},"ļ":{"ha":309,"x_min":0,"x_max":0,"o":""},"Ľ":{"ha":772,"x_min":0,"x_max":0,"o":""},"ľ":{"ha":405,"x_min":0,"x_max":0,"o":""},"Ŀ":{"ha":772,"x_min":0,"x_max":0,"o":""},"ŀ":{"ha":464,"x_min":0,"x_max":0,"o":""},"Ń":{"ha":1003,"x_min":0,"x_max":0,"o":""},"ń":{"ha":772,"x_min":0,"x_max":0,"o":""},"Ņ":{"ha":1003,"x_min":0,"x_max":0,"o":""},"ņ":{"ha":772,"x_min":0,"x_max":0,"o":""},"Ň":{"ha":1003,"x_min":0,"x_max":0,"o":""},"ň":{"ha":772,"x_min":0,"x_max":0,"o":""},"ŉ":{"ha":839,"x_min":0,"x_max":0,"o":""},"Ŋ":{"ha":1004,"x_min":0,"x_max":0,"o":""},"ŋ":{"ha":772,"x_min":0,"x_max":0,"o":""},"Ō":{"ha":1080,"x_min":0,"x_max":0,"o":""},"ō":{"ha":772,"x_min":0,"x_max":0,"o":""},"Ŏ":{"ha":1080,"x_min":0,"x_max":0,"o":""},"ŏ":{"ha":772,"x_min":0,"x_max":0,"o":""},"Ő":{"ha":1080,"x_min":0,"x_max":0,"o":""},"ő":{"ha":772,"x_min":0,"x_max":0,"o":""},"Ŕ":{"ha":1003,"x_min":0,"x_max":0,"o":""},"ŕ":{"ha":463,"x_min":0,"x_max":0,"o":""},"Ŗ":{"ha":1003,"x_min":0,"x_max":0,"o":""},"ŗ":{"ha":463,"x_min":0,"x_max":0,"o":""},"Ř":{"ha":1003,"x_min":0,"x_max":0,"o":""},"ř":{"ha":463,"x_min":0,"x_max":0,"o":""},"Ś":{"ha":926,"x_min":0,"x_max":0,"o":""},"ś":{"ha":694,"x_min":0,"x_max":0,"o":""},"Ŝ":{"ha":926,"x_min":0,"x_max":0,"o":""},"ŝ":{"ha":694,"x_min":0,"x_max":0,"o":""},"Ţ":{"ha":848,"x_min":0,"x_max":0,"o":""},"ţ":{"ha":386,"x_min":0,"x_max":0,"o":""},"Ť":{"ha":848,"x_min":0,"x_max":0,"o":""},"ť":{"ha":521,"x_min":0,"x_max":0,"o":""},"Ŧ":{"ha":848,"x_min":0,"x_max":0,"o":""},"ŧ":{"ha":386,"x_min":0,"x_max":0,"o":""},"Ũ":{"ha":1003,"x_min":0,"x_max":0,"o":""},"ũ":{"ha":772,"x_min":0,"x_max":0,"o":""},"Ū":{"ha":1003,"x_min":0,"x_max":0,"o":""},"ū":{"ha":772,"x_min":0,"x_max":0,"o":""},"Ŭ":{"ha":1003,"x_min":0,"x_max":0,"o":""},"ŭ":{"ha":772,"x_min":0,"x_max":0,"o":""},"Ů":{"ha":1003,"x_min":0,"x_max":0,"o":""},"ů":{"ha":772,"x_min":0,"x_max":0,"o":""},"Ű":{"ha":1003,"x_min":0,"x_max":0,"o":""},"ű":{"ha":772,"x_min":0,"x_max":0,"o":""},"Ų":{"ha":1003,"x_min":0,"x_max":0,"o":""},"ų":{"ha":772,"x_min":0,"x_max":0,"o":""},"Ŵ":{"ha":1311,"x_min":0,"x_max":0,"o":""},"ŵ":{"ha":1003,"x_min":0,"x_max":0,"o":""},"Ŷ":{"ha":926,"x_min":0,"x_max":0,"o":""},"ŷ":{"ha":694,"x_min":0,"x_max":0,"o":""},"Ź":{"ha":848,"x_min":0,"x_max":0,"o":""},"ź":{"ha":694,"x_min":0,"x_max":0,"o":""},"Ż":{"ha":848,"x_min":0,"x_max":0,"o":""},"ż":{"ha":694,"x_min":0,"x_max":0,"o":""},"ſ":{"ha":309,"x_min":0,"x_max":0,"o":""},"Ǻ":{"ha":926,"x_min":0,"x_max":0,"o":""},"ǻ":{"ha":772,"x_min":0,"x_max":0,"o":""},"Ǽ":{"ha":1389,"x_min":0,"x_max":0,"o":""},"ǽ":{"ha":1235,"x_min":0,"x_max":0,"o":""},"Ǿ":{"ha":1080,"x_min":0,"x_max":0,"o":""},"ǿ":{"ha":848,"x_min":0,"x_max":0,"o":""},"΄":{"ha":463,"x_min":0,"x_max":0,"o":""},"΅":{"ha":463,"x_min":0,"x_max":0,"o":""},"Ά":{"ha":927,"x_min":0,"x_max":0,"o":""},"·":{"ha":386,"x_min":0,"x_max":0,"o":""},"Έ":{"ha":1089,"x_min":0,"x_max":0,"o":""},"Ή":{"ha":1164,"x_min":0,"x_max":0,"o":""},"Ί":{"ha":533,"x_min":0,"x_max":0,"o":""},"Ό":{"ha":1076,"x_min":0,"x_max":0,"o":""},"Ύ":{"ha":1188,"x_min":0,"x_max":0,"o":""},"Ώ":{"ha":1045,"x_min":0,"x_max":0,"o":""},"ΐ":{"ha":309,"x_min":0,"x_max":0,"o":""},"Α":{"ha":926,"x_min":0,"x_max":0,"o":""},"Β":{"ha":926,"x_min":0,"x_max":0,"o":""},"Γ":{"ha":765,"x_min":0,"x_max":0,"o":""},"Δ":{"ha":928,"x_min":0,"x_max":0,"o":""},"Ε":{"ha":926,"x_min":0,"x_max":0,"o":""},"Ζ":{"ha":848,"x_min":0,"x_max":0,"o":""},"Η":{"ha":1003,"x_min":0,"x_max":0,"o":""},"Θ":{"ha":1080,"x_min":0,"x_max":0,"o":""},"Ι":{"ha":386,"x_min":0,"x_max":0,"o":""},"Κ":{"ha":926,"x_min":0,"x_max":0,"o":""},"Λ":{"ha":928,"x_min":0,"x_max":0,"o":""},"Μ":{"ha":1157,"x_min":0,"x_max":0,"o":""},"Ν":{"ha":1003,"x_min":0,"x_max":0,"o":""},"Ξ":{"ha":903,"x_min":0,"x_max":0,"o":""},"Ο":{"ha":1080,"x_min":0,"x_max":0,"o":""},"Π":{"ha":1003,"x_min":0,"x_max":0,"o":""},"Ρ":{"ha":926,"x_min":0,"x_max":0,"o":""},"Σ":{"ha":859,"x_min":0,"x_max":0,"o":""},"Τ":{"ha":848,"x_min":0,"x_max":0,"o":""},"Υ":{"ha":926,"x_min":0,"x_max":0,"o":""},"Φ":{"ha":1108,"x_min":0,"x_max":0,"o":""},"Χ":{"ha":926,"x_min":0,"x_max":0,"o":""},"Ψ":{"ha":1160,"x_min":0,"x_max":0,"o":""},"Ω":{"ha":1038,"x_min":0,"x_max":0,"o":""},"Ϊ":{"ha":386,"x_min":0,"x_max":0,"o":""},"Ϋ":{"ha":926,"x_min":0,"x_max":0,"o":""},"ά":{"ha":803,"x_min":0,"x_max":0,"o":""},"έ":{"ha":619,"x_min":0,"x_max":0,"o":""},"ή":{"ha":772,"x_min":0,"x_max":0,"o":""},"ί":{"ha":309,"x_min":0,"x_max":0,"o":""},"ΰ":{"ha":760,"x_min":0,"x_max":0,"o":""},"α":{"ha":803,"x_min":0,"x_max":0,"o":""},"β":{"ha":799,"x_min":0,"x_max":0,"o":""},"γ":{"ha":694,"x_min":0,"x_max":0,"o":""},"δ":{"ha":773,"x_min":0,"x_max":0,"o":""},"ε":{"ha":619,"x_min":0,"x_max":0,"o":""},"ζ":{"ha":612,"x_min":0,"x_max":0,"o":""},"η":{"ha":772,"x_min":0,"x_max":0,"o":""},"θ":{"ha":772,"x_min":0,"x_max":0,"o":""},"ι":{"ha":309,"x_min":0,"x_max":0,"o":""},"κ":{"ha":694,"x_min":0,"x_max":0,"o":""},"λ":{"ha":694,"x_min":0,"x_max":0,"o":""},"μ":{"ha":800,"x_min":0,"x_max":0,"o":""},"ν":{"ha":694,"x_min":0,"x_max":0,"o":""},"ξ":{"ha":622,"x_min":0,"x_max":0,"o":""},"ο":{"ha":772,"x_min":0,"x_max":0,"o":""},"π":{"ha":958,"x_min":0,"x_max":0,"o":""},"ρ":{"ha":790,"x_min":0,"x_max":0,"o":""},"ς":{"ha":669,"x_min":0,"x_max":0,"o":""},"σ":{"ha":857,"x_min":0,"x_max":0,"o":""},"τ":{"ha":549,"x_min":0,"x_max":0,"o":""},"υ":{"ha":760,"x_min":0,"x_max":0,"o":""},"φ":{"ha":901,"x_min":0,"x_max":0,"o":""},"χ":{"ha":729,"x_min":0,"x_max":0,"o":""},"ψ":{"ha":990,"x_min":0,"x_max":0,"o":""},"ω":{"ha":1084,"x_min":0,"x_max":0,"o":""},"ϊ":{"ha":309,"x_min":0,"x_max":0,"o":""},"ϋ":{"ha":760,"x_min":0,"x_max":0,"o":""},"ό":{"ha":772,"x_min":0,"x_max":0,"o":""},"ύ":{"ha":760,"x_min":0,"x_max":0,"o":""},"ώ":{"ha":1084,"x_min":0,"x_max":0,"o":""},"Ё":{"ha":927,"x_min":0,"x_max":0,"o":""},"Ђ":{"ha":1201,"x_min":0,"x_max":0,"o":""},"Ѓ":{"ha":752,"x_min":0,"x_max":0,"o":""},"Є":{"ha":998,"x_min":0,"x_max":0,"o":""},"Ѕ":{"ha":926,"x_min":0,"x_max":0,"o":""},"І":{"ha":386,"x_min":0,"x_max":0,"o":""},"Ї":{"ha":386,"x_min":0,"x_max":0,"o":""},"Ј":{"ha":694,"x_min":0,"x_max":0,"o":""},"Љ":{"ha":1468,"x_min":0,"x_max":0,"o":""},"Њ":{"ha":1403,"x_min":0,"x_max":0,"o":""},"Ћ":{"ha":1186,"x_min":0,"x_max":0,"o":""},"Ќ":{"ha":809,"x_min":0,"x_max":0,"o":""},"Ў":{"ha":882,"x_min":0,"x_max":0,"o":""},"Џ":{"ha":998,"x_min":0,"x_max":0,"o":""},"А":{"ha":926,"x_min":0,"x_max":0,"o":""},"Б":{"ha":911,"x_min":0,"x_max":0,"o":""},"В":{"ha":926,"x_min":0,"x_max":0,"o":""},"Г":{"ha":752,"x_min":0,"x_max":0,"o":""},"Д":{"ha":941,"x_min":0,"x_max":0,"o":""},"Е":{"ha":926,"x_min":0,"x_max":0,"o":""},"Ж":{"ha":1282,"x_min":0,"x_max":0,"o":""},"З":{"ha":839,"x_min":0,"x_max":0,"o":""},"И":{"ha":998,"x_min":0,"x_max":0,"o":""},"Й":{"ha":998,"x_min":0,"x_max":0,"o":""},"К":{"ha":809,"x_min":0,"x_max":0,"o":""},"Л":{"ha":911,"x_min":0,"x_max":0,"o":""},"М":{"ha":1157,"x_min":0,"x_max":0,"o":""},"Н":{"ha":1003,"x_min":0,"x_max":0,"o":""},"О":{"ha":1080,"x_min":0,"x_max":0,"o":""},"П":{"ha":998,"x_min":0,"x_max":0,"o":""},"Р":{"ha":926,"x_min":0,"x_max":0,"o":""},"С":{"ha":1003,"x_min":0,"x_max":0,"o":""},"Т":{"ha":848,"x_min":0,"x_max":0,"o":""},"У":{"ha":882,"x_min":0,"x_max":0,"o":""},"Ф":{"ha":1056,"x_min":0,"x_max":0,"o":""},"Х":{"ha":926,"x_min":0,"x_max":0,"o":""},"Ц":{"ha":1027,"x_min":0,"x_max":0,"o":""},"Ч":{"ha":926,"x_min":0,"x_max":0,"o":""},"Ш":{"ha":1273,"x_min":0,"x_max":0,"o":""},"Щ":{"ha":1302,"x_min":0,"x_max":0,"o":""},"Ъ":{"ha":1099,"x_min":0,"x_max":0,"o":""},"Ы":{"ha":1230,"x_min":0,"x_max":0,"o":""},"Ь":{"ha":911,"x_min":0,"x_max":0,"o":""},"Э":{"ha":998,"x_min":0,"x_max":0,"o":""},"Ю":{"ha":1403,"x_min":0,"x_max":0,"o":""},"Я":{"ha":1003,"x_min":0,"x_max":0,"o":""},"а":{"ha":772,"x_min":0,"x_max":0,"o":""},"б":{"ha":795,"x_min":0,"x_max":0,"o":""},"в":{"ha":738,"x_min":0,"x_max":0,"o":""},"г":{"ha":507,"x_min":0,"x_max":0,"o":""},"д":{"ha":810,"x_min":0,"x_max":0,"o":""},"е":{"ha":772,"x_min":0,"x_max":0,"o":""},"ж":{"ha":929,"x_min":0,"x_max":0,"o":""},"з":{"ha":637,"x_min":0,"x_max":0,"o":""},"и":{"ha":776,"x_min":0,"x_max":0,"o":""},"й":{"ha":776,"x_min":0,"x_max":0,"o":""},"к":{"ha":608,"x_min":0,"x_max":0,"o":""},"л":{"ha":810,"x_min":0,"x_max":0,"o":""},"м":{"ha":955,"x_min":0,"x_max":0,"o":""},"н":{"ha":767,"x_min":0,"x_max":0,"o":""},"о":{"ha":772,"x_min":0,"x_max":0,"o":""},"п":{"ha":752,"x_min":0,"x_max":0,"o":""},"р":{"ha":772,"x_min":0,"x_max":0,"o":""},"с":{"ha":694,"x_min":0,"x_max":0,"o":""},"т":{"ha":636,"x_min":0,"x_max":0,"o":""},"у":{"ha":694,"x_min":0,"x_max":0,"o":""},"ф":{"ha":1143,"x_min":0,"x_max":0,"o":""},"х":{"ha":694,"x_min":0,"x_max":0,"o":""},"ц":{"ha":795,"x_min":0,"x_max":0,"o":""},"ч":{"ha":724,"x_min":0,"x_max":0,"o":""},"ш":{"ha":1114,"x_min":0,"x_max":0,"o":""},"щ":{"ha":1143,"x_min":0,"x_max":0,"o":""},"ъ":{"ha":868,"x_min":0,"x_max":0,"o":""},"ы":{"ha":998,"x_min":0,"x_max":0,"o":""},"ь":{"ha":724,"x_min":0,"x_max":0,"o":""},"э":{"ha":709,"x_min":0,"x_max":0,"o":""},"ю":{"ha":1042,"x_min":0,"x_max":0,"o":""},"я":{"ha":752,"x_min":0,"x_max":0,"o":""},"ё":{"ha":772,"x_min":0,"x_max":0,"o":""},"ђ":{"ha":772,"x_min":0,"x_max":0,"o":""},"ѓ":{"ha":507,"x_min":0,"x_max":0,"o":""},"є":{"ha":709,"x_min":0,"x_max":0,"o":""},"ѕ":{"ha":694,"x_min":0,"x_max":0,"o":""},"і":{"ha":309,"x_min":0,"x_max":0,"o":""},"ї":{"ha":386,"x_min":0,"x_max":0,"o":""},"ј":{"ha":309,"x_min":0,"x_max":0,"o":""},"љ":{"ha":1259,"x_min":0,"x_max":0,"o":""},"њ":{"ha":1128,"x_min":0,"x_max":0,"o":""},"ћ":{"ha":772,"x_min":0,"x_max":0,"o":""},"ќ":{"ha":608,"x_min":0,"x_max":0,"o":""},"ў":{"ha":694,"x_min":0,"x_max":0,"o":""},"џ":{"ha":767,"x_min":0,"x_max":0,"o":""},"Ґ":{"ha":679,"x_min":0,"x_max":0,"o":""},"ґ":{"ha":571,"x_min":0,"x_max":0,"o":""},"Ẁ":{"ha":1311,"x_min":0,"x_max":0,"o":""},"ẁ":{"ha":1003,"x_min":0,"x_max":0,"o":""},"Ẃ":{"ha":1311,"x_min":0,"x_max":0,"o":""},"ẃ":{"ha":1003,"x_min":0,"x_max":0,"o":""},"Ẅ":{"ha":1311,"x_min":0,"x_max":0,"o":""},"ẅ":{"ha":1003,"x_min":0,"x_max":0,"o":""},"Ỳ":{"ha":926,"x_min":0,"x_max":0,"o":""},"ỳ":{"ha":694,"x_min":0,"x_max":0,"o":""},"―":{"ha":1389,"x_min":0,"x_max":0,"o":""},"‗":{"ha":767,"x_min":0,"x_max":0,"o":""},"‛":{"ha":309,"x_min":0,"x_max":0,"o":""},"′":{"ha":260,"x_min":0,"x_max":0,"o":""},"″":{"ha":492,"x_min":0,"x_max":0,"o":""},"‼":{"ha":694,"x_min":0,"x_max":0,"o":""},"‾":{"ha":463,"x_min":0,"x_max":0,"o":""},"ⁿ":{"ha":507,"x_min":0,"x_max":0,"o":""},"₤":{"ha":772,"x_min":0,"x_max":0,"o":""},"₧":{"ha":1519,"x_min":0,"x_max":0,"o":""},"℅":{"ha":1230,"x_min":0,"x_max":0,"o":""},"ℓ":{"ha":449,"x_min":0,"x_max":0,"o":""},"№":{"ha":1490,"x_min":0,"x_max":0,"o":""},"℮":{"ha":833,"x_min":0,"x_max":0,"o":""},"⅛":{"ha":1158,"x_min":0,"x_max":0,"o":""},"⅜":{"ha":1158,"x_min":0,"x_max":0,"o":""},"⅝":{"ha":1158,"x_min":0,"x_max":0,"o":""},"⅞":{"ha":1158,"x_min":0,"x_max":0,"o":""},"←":{"ha":1389,"x_min":0,"x_max":0,"o":""},"↑":{"ha":694,"x_min":0,"x_max":0,"o":""},"→":{"ha":1389,"x_min":0,"x_max":0,"o":""},"↓":{"ha":694,"x_min":0,"x_max":0,"o":""},"↔":{"ha":1389,"x_min":0,"x_max":0,"o":""},"↕":{"ha":694,"x_min":0,"x_max":0,"o":""},"↨":{"ha":694,"x_min":0,"x_max":0,"o":""},"∟":{"ha":1360,"x_min":0,"x_max":0,"o":""},"∩":{"ha":998,"x_min":0,"x_max":0,"o":""},"≡":{"ha":810,"x_min":0,"x_max":0,"o":""},"⌂":{"ha":839,"x_min":0,"x_max":0,"o":""},"⌐":{"ha":811,"x_min":0,"x_max":0,"o":""},"⌠":{"ha":839,"x_min":0,"x_max":0,"o":""},"⌡":{"ha":839,"x_min":0,"x_max":0,"o":""},"─":{"ha":984,"x_min":0,"x_max":0,"o":""},"│":{"ha":868,"x_min":0,"x_max":0,"o":""},"┌":{"ha":984,"x_min":0,"x_max":0,"o":""},"┐":{"ha":984,"x_min":0,"x_max":0,"o":""},"└":{"ha":984,"x_min":0,"x_max":0,"o":""},"┘":{"ha":984,"x_min":0,"x_max":0,"o":""},"├":{"ha":984,"x_min":0,"x_max":0,"o":""},"┤":{"ha":984,"x_min":0,"x_max":0,"o":""},"┬":{"ha":984,"x_min":0,"x_max":0,"o":""},"┴":{"ha":984,"x_min":0,"x_max":0,"o":""},"┼":{"ha":984,"x_min":0,"x_max":0,"o":""},"═":{"ha":984,"x_min":0,"x_max":0,"o":""},"║":{"ha":984,"x_min":0,"x_max":0,"o":""},"╒":{"ha":984,"x_min":0,"x_max":0,"o":""},"╓":{"ha":984,"x_min":0,"x_max":0,"o":""},"╔":{"ha":984,"x_min":0,"x_max":0,"o":""},"╕":{"ha":984,"x_min":0,"x_max":0,"o":""},"╖":{"ha":984,"x_min":0,"x_max":0,"o":""},"╗":{"ha":984,"x_min":0,"x_max":0,"o":""},"╘":{"ha":984,"x_min":0,"x_max":0,"o":""},"╙":{"ha":984,"x_min":0,"x_max":0,"o":""},"╚":{"ha":984,"x_min":0,"x_max":0,"o":""},"╛":{"ha":984,"x_min":0,"x_max":0,"o":""},"╜":{"ha":984,"x_min":0,"x_max":0,"o":""},"╝":{"ha":984,"x_min":0,"x_max":0,"o":""},"╞":{"ha":984,"x_min":0,"x_max":0,"o":""},"╟":{"ha":984,"x_min":0,"x_max":0,"o":""},"╠":{"ha":984,"x_min":0,"x_max":0,"o":""},"╡":{"ha":984,"x_min":0,"x_max":0,"o":""},"╢":{"ha":984,"x_min":0,"x_max":0,"o":""},"╣":{"ha":984,"x_min":0,"x_max":0,"o":""},"╤":{"ha":984,"x_min":0,"x_max":0,"o":""},"╥":{"ha":984,"x_min":0,"x_max":0,"o":""},"╦":{"ha":984,"x_min":0,"x_max":0,"o":""},"╧":{"ha":984,"x_min":0,"x_max":0,"o":""},"╨":{"ha":984,"x_min":0,"x_max":0,"o":""},"╩":{"ha":984,"x_min":0,"x_max":0,"o":""},"╪":{"ha":984,"x_min":0,"x_max":0,"o":""},"╫":{"ha":984,"x_min":0,"x_max":0,"o":""},"╬":{"ha":984,"x_min":0,"x_max":0,"o":""},"▀":{"ha":984,"x_min":0,"x_max":0,"o":""},"▄":{"ha":984,"x_min":0,"x_max":0,"o":""},"█":{"ha":984,"x_min":0,"x_max":0,"o":""},"▌":{"ha":984,"x_min":0,"x_max":0,"o":""},"▐":{"ha":984,"x_min":0,"x_max":0,"o":""},"░":{"ha":984,"x_min":0,"x_max":0,"o":""},"▒":{"ha":984,"x_min":0,"x_max":0,"o":""},"▓":{"ha":1013,"x_min":0,"x_max":0,"o":""},"■":{"ha":839,"x_min":0,"x_max":0,"o":""},"□":{"ha":839,"x_min":0,"x_max":0,"o":""},"▪":{"ha":492,"x_min":0,"x_max":0,"o":""},"▫":{"ha":492,"x_min":0,"x_max":0,"o":""},"▬":{"ha":1389,"x_min":0,"x_max":0,"o":""},"▲":{"ha":1375,"x_min":0,"x_max":0,"o":""},"►":{"ha":1375,"x_min":0,"x_max":0,"o":""},"▼":{"ha":1375,"x_min":0,"x_max":0,"o":""},"◄":{"ha":1375,"x_min":0,"x_max":0,"o":""},"○":{"ha":839,"x_min":0,"x_max":0,"o":""},"●":{"ha":839,"x_min":0,"x_max":0,"o":""},"◘":{"ha":839,"x_min":0,"x_max":0,"o":""},"◙":{"ha":839,"x_min":0,"x_max":0,"o":""},"◦":{"ha":492,"x_min":0,"x_max":0,"o":""},"☺":{"ha":1418,"x_min":0,"x_max":0,"o":""},"☻":{"ha":1461,"x_min":0,"x_max":0,"o":""},"☼":{"ha":1273,"x_min":0,"x_max":0,"o":""},"♀":{"ha":1042,"x_min":0,"x_max":0,"o":""},"♂":{"ha":1042,"x_min":0,"x_max":0,"o":""},"♠":{"ha":738,"x_min":0,"x_max":0,"o":""},"♣":{"ha":911,"x_min":0,"x_max":0,"o":""},"♥":{"ha":825,"x_min":0,"x_max":0,"o":""},"♦":{"ha":709,"x_min":0,"x_max":0,"o":""},"♪":{"ha":694,"x_min":0,"x_max":0,"o":""},"♫":{"ha":1042,"x_min":0,"x_max":0,"o":""},"":{"ha":463,"x_min":0,"x_max":0,"o":""},"":{"ha":463,"x_min":0,"x_max":0,"o":""}}}
